<?xml version="1.0" encoding="UTF-8" standalone="no"?>
<svg width="100%" height="100%" viewBox="0 0 2100 2100" version="1.1" xmlns="http://www.w3.org/2000/svg" xmlnsXlink="http://www.w3.org/1999/xlink" xmlSpace="preserve" xmlnsSerif="http://www.serif.com/" style="fill-rule:evenodd;clip-rule:evenodd;stroke-linecap:round;stroke-linejoin:round;stroke-miterlimit:1.5;">
    <path fill="#fff" d="M1970.5,579.5C1970.5,460.153 1923.09,345.693 1838.7,261.302C1754.31,176.911 1639.85,129.5 1520.5,129.5L579.5,129.5C460.153,129.5 345.693,176.911 261.302,261.302C176.911,345.693 129.5,460.153 129.5,579.5L129.5,1520.5C129.5,1639.85 176.911,1754.31 261.302,1838.7C345.693,1923.09 460.153,1970.5 579.5,1970.5L1520.5,1970.5C1639.85,1970.5 1754.31,1923.09 1838.7,1838.7C1923.09,1754.31 1970.5,1639.85 1970.5,1520.5L1970.5,579.5ZM1820.55,579.45C1820.55,413.765 1686.24,279.45 1520.55,279.45L579.45,279.45C413.765,279.45 279.45,413.765 279.45,579.45L279.45,1520.55C279.45,1686.24 413.765,1820.55 579.45,1820.55L1520.55,1820.55C1686.24,1820.55 1820.55,1686.24 1820.55,1520.55L1820.55,579.45Z"/>
    <path fill="#fff" d="M1970.5,579.5C1970.5,460.153 1923.09,345.693 1838.7,261.302C1754.31,176.911 1639.85,129.5 1520.5,129.5L579.5,129.5C460.153,129.5 345.693,176.911 261.302,261.302C176.911,345.693 129.5,460.153 129.5,579.5L129.5,1520.5C129.5,1639.85 176.911,1754.31 261.302,1838.7C345.693,1923.09 460.153,1970.5 579.5,1970.5L1520.5,1970.5C1639.85,1970.5 1754.31,1923.09 1838.7,1838.7C1923.09,1754.31 1970.5,1639.85 1970.5,1520.5L1970.5,579.5ZM1820.55,579.45C1820.55,413.765 1686.24,279.45 1520.55,279.45L579.45,279.45C413.765,279.45 279.45,413.765 279.45,579.45L279.45,1520.55C279.45,1686.24 413.765,1820.55 579.45,1820.55L1520.55,1820.55C1686.24,1820.55 1820.55,1686.24 1820.55,1520.55L1820.55,579.45Z"/>
    <g transform="matrix(1,0,0,1,-24.3885,58.925)">
        <path fill="#fff" d="M748.486,524.111C578.538,561.275 453.092,814.809 640.516,874.995C833.452,936.95 935.959,662.499 1086.99,579.596C1153.54,543.063 1268.46,558.607 1308.2,651.743C1387.88,838.439 1079.53,932.381 937.535,1012.07C856.033,1057.81 743.593,1129 710.783,1218.21C656.745,1365.13 757.563,1454.75 858.719,1457.86C1035.73,1463.31 1128.02,1342.02 1215.36,1217.38C1433.57,906.027 1558.81,1040.69 1586.2,1093.83C1660.77,1238.5 1444.58,1392.36 1359.01,1447.13" style="fill:none;stroke:#fff;stroke-width:150px;"/>
    </g>
</svg>
