<?xml version="1.0" encoding="UTF-8" standalone="no"?>
<svg width="100%" height="100%" viewBox="0 0 2100 2100" version="1.1" xmlns="http://www.w3.org/2000/svg" xmlnsXlink="http://www.w3.org/1999/xlink" xmlSpace="preserve" xmlnsSerif="http://www.serif.com/" style="fill-rule:evenodd;clip-rule:evenodd;stroke-linecap:round;stroke-linejoin:round;stroke-miterlimit:1.5;">
    <g transform="matrix(0.768417,0,0,1,243.169,-144.436)">
        <path fill="#fff" d="M491.146,1288.25L780.097,1577.13C798.573,1595.6 827.172,1606.43 857.491,1606.42C887.81,1606.42 916.407,1595.59 934.879,1577.12L1608.86,903.064C1641.68,870.24 1633.65,823.116 1590.93,797.897C1548.22,772.677 1486.89,778.85 1454.07,811.674L857.469,1408.34C857.469,1408.34 645.918,1196.84 645.918,1196.84C613.091,1164.02 551.763,1157.85 509.053,1183.08C466.342,1208.3 458.318,1255.43 491.146,1288.25Z"/>
    </g>
    <path fill="#fff" d="M279.665,579.656C279.661,500.091 311.266,423.782 367.525,367.519C423.784,311.255 500.091,279.645 579.656,279.643C851.132,279.635 1248.86,279.624 1520.34,279.616C1599.91,279.614 1676.22,311.22 1732.48,367.481C1788.74,423.742 1820.35,500.05 1820.35,579.616L1820.35,1520.31C1820.35,1599.87 1788.74,1676.18 1732.48,1732.44C1676.22,1788.7 1599.91,1820.31 1520.35,1820.31L579.708,1820.31C414.028,1820.31 279.715,1686 279.708,1520.32C279.695,1248.85 279.677,851.129 279.665,579.656Z" style="fill:none;stroke:#fff;stroke-width:150px;"/>
</svg>
