<?xml version="1.0" encoding="UTF-8" standalone="no"?>
<svg width="100%" height="100%" viewBox="0 0 2100 2100" version="1.1" xmlns="http://www.w3.org/2000/svg" xmlnsXlink="http://www.w3.org/1999/xlink" xmlSpace="preserve" xmlnsSerif="http://www.serif.com/" style="fill-rule:evenodd;clip-rule:evenodd;stroke-linecap:round;stroke-linejoin:round;stroke-miterlimit:1.5;">
    <path fill="#fff" d="M1970.5,579.5C1970.5,460.153 1923.09,345.693 1838.7,261.302C1754.31,176.911 1639.85,129.5 1520.5,129.5L579.5,129.5C460.153,129.5 345.693,176.911 261.302,261.302C176.911,345.693 129.5,460.153 129.5,579.5L129.5,1520.5C129.5,1639.85 176.911,1754.31 261.302,1838.7C345.693,1923.09 460.153,1970.5 579.5,1970.5L1520.5,1970.5C1639.85,1970.5 1754.31,1923.09 1838.7,1838.7C1923.09,1754.31 1970.5,1639.85 1970.5,1520.5L1970.5,579.5ZM1820.55,579.45C1820.55,413.765 1686.24,279.45 1520.55,279.45L579.45,279.45C413.765,279.45 279.45,413.765 279.45,579.45L279.45,1520.55C279.45,1686.24 413.765,1820.55 579.45,1820.55L1520.55,1820.55C1686.24,1820.55 1820.55,1686.24 1820.55,1520.55L1820.55,579.45Z"/>
    <g transform="matrix(0.879408,0,0,1,124.266,-136.5)">
        <path fill="#fff" d="M450,937.5L1329,937.5C1376.07,937.5 1414.29,903.894 1414.29,862.5C1414.29,821.106 1376.07,787.5 1329,787.5L450,787.5C402.93,787.5 364.715,821.106 364.715,862.5C364.715,903.894 402.93,937.5 450,937.5Z"/>
    </g>
    <g transform="matrix(1,0,0,1,70,-187.5)">
        <path fill="#fff" d="M450,1312.5L937,1312.5C978.394,1312.5 1012,1278.89 1012,1237.5C1012,1196.11 978.394,1162.5 937,1162.5L450,1162.5C408.606,1162.5 375,1196.11 375,1237.5C375,1278.89 408.606,1312.5 450,1312.5Z"/>
    </g>
    <g transform="matrix(2.05955,0,0,1,-406.797,136.5)">
        <path fill="#fff" d="M450,1312.5L937,1312.5C957.098,1312.5 973.416,1278.89 973.416,1237.5C973.416,1196.11 957.098,1162.5 937,1162.5L450,1162.5C429.902,1162.5 413.584,1196.11 413.584,1237.5C413.584,1278.89 429.902,1312.5 450,1312.5Z"/>
    </g>
    <g transform="matrix(1,0,0,1.29343,-278.75,-61.4493)">
        <path fill="#fff" d="M1011,129.5L1011,279.45" style="fill:none;stroke:#fff;stroke-width:129.75px;"/>
    </g>
    <g transform="matrix(1,0,0,1.29343,356.75,-61.4493)">
        <path fill="#fff" d="M1011,129.5L1011,279.45" style="fill:none;stroke:#fff;stroke-width:129.75px;"/>
    </g>
</svg>
