<?xml version="1.0" encoding="UTF-8" standalone="no"?>
<svg width="100%" height="100%" viewBox="0 0 2100 2100" version="1.1" xmlns="http://www.w3.org/2000/svg" xmlnsXlink="http://www.w3.org/1999/xlink" xmlSpace="preserve" xmlnsSerif="http://www.serif.com/" style="fill-rule:evenodd;clip-rule:evenodd;stroke-linejoin:round;stroke-miterlimit:2;">
    <path fill="#fff" d="M1050,1050L1051.43,1050C1295.73,1049.2 1493.5,850.948 1493.5,606.5C1493.5,595.338 1493.5,584.162 1493.5,573C1493.5,455.376 1446.77,342.571 1363.6,259.398C1280.43,176.226 1167.62,129.5 1050,129.5L1050,129.5C805.062,129.5 606.5,328.062 606.5,573C606.5,584.162 606.5,595.338 606.5,606.5C606.5,724.124 653.226,836.929 736.398,920.102C819.571,1003.27 932.376,1050 1050,1050ZM1343.5,573L1343.5,606.5C1343.5,768.596 1212.1,900 1050,900C1050,900 1050,900 1050,900C972.159,900 897.506,869.078 842.464,814.036C787.422,758.994 756.5,684.341 756.5,606.5C756.5,595.338 756.5,584.162 756.5,573C756.5,410.904 887.904,279.5 1050,279.5C1050,279.5 1050,279.5 1050,279.5C1127.84,279.5 1202.49,310.422 1257.54,365.464C1312.58,420.506 1343.5,495.159 1343.5,573Z"/>
    <path fill="#fff" d="M129.537,1494.18C129.512,1496.13 129.5,1498.06 129.5,1500L129.5,1670.5C129.5,1750.07 161.107,1826.37 217.368,1882.63C273.629,1938.89 349.935,1970.5 429.5,1970.5L1670.5,1970.5C1750.07,1970.5 1826.37,1938.89 1882.63,1882.63C1938.89,1826.37 1970.5,1750.07 1970.5,1670.5L1970.5,1500C1970.5,1450.89 1962.63,1403.62 1948.1,1359.4C1889.04,1179.72 1719.92,1050 1520.5,1050L1520.5,1050C1474.88,1050 1430.39,1064.21 1393.22,1090.67C1296.36,1159.54 1177.9,1200 1050,1200L1050,1200C926.208,1200 806.403,1161.33 706.735,1090.66C669.592,1064.26 625.151,1050.07 579.578,1050.07C579.526,1050 579.5,1050 579.5,1050C332.91,1050 132.646,1248.34 129.537,1494.18ZM571.479,1200.11C566.3,1199.87 569.044,1200.07 579.578,1200.07C594.001,1200.07 608.066,1204.56 619.82,1212.92C619.873,1212.95 619.927,1212.99 619.98,1213.03C744.838,1301.55 894.921,1350 1050,1350L1050,1350C1210.31,1350 1358.75,1299.23 1480.14,1212.91C1480.16,1212.9 1480.17,1212.89 1480.19,1212.88C1491.96,1204.5 1506.05,1200 1520.5,1200L1520.5,1200C1686.18,1200 1820.5,1334.32 1820.5,1500C1820.5,1557.84 1820.5,1615.89 1820.5,1670.5C1820.5,1710.28 1804.7,1748.44 1776.57,1776.57C1748.44,1804.7 1710.28,1820.5 1670.5,1820.5L429.5,1820.5C389.718,1820.5 351.564,1804.7 323.434,1776.57C295.304,1748.44 279.5,1710.28 279.5,1670.5L279.5,1500C279.5,1337 409.501,1204.36 571.479,1200.11Z"/>
</svg>
