<?xml version="1.0" encoding="UTF-8" standalone="no"?>
<svg width="100%" height="100%" viewBox="0 0 2100 2100" version="1.1" xmlns="http://www.w3.org/2000/svg" xmlnsXlink="http://www.w3.org/1999/xlink" xmlSpace="preserve" xmlnsSerif="http://www.serif.com/" style="fill-rule:evenodd;clip-rule:evenodd;stroke-linejoin:round;stroke-miterlimit:2;">
    <g transform="matrix(1,0,0,1,0,0.0437407)">
        <path fill="#fff" d="M1050,568.488C1315.73,568.488 1531.47,784.227 1531.47,1049.96C1531.47,1315.69 1315.73,1531.42 1050,1531.42C784.271,1531.42 568.532,1315.69 568.532,1049.96C568.532,784.227 784.271,568.488 1050,568.488ZM1050,717.156C1233.68,717.156 1382.8,866.279 1382.8,1049.96C1382.8,1233.63 1233.68,1382.76 1050,1382.76C866.323,1382.76 717.2,1233.63 717.2,1049.96C717.2,866.279 866.323,717.156 1050,717.156Z"/>
    </g>
    <g transform="matrix(1,0,0,1,0,144.44)">
        <path fill="#fff" d="M1125.07,1820.35L1125.07,1531.47C1125.07,1490.07 1091.46,1456.47 1050.07,1456.47C1008.68,1456.47 975.07,1490.07 975.07,1531.47L975.07,1820.35C975.07,1861.74 1008.68,1895.35 1050.07,1895.35C1091.46,1895.35 1125.07,1861.74 1125.07,1820.35Z"/>
    </g>
    <g transform="matrix(1,0,0,1,0,-1396.3)">
        <path fill="#fff" d="M1125.07,1820.35L1125.07,1531.47C1125.07,1490.07 1091.46,1456.47 1050.07,1456.47C1008.68,1456.47 975.07,1490.07 975.07,1531.47L975.07,1820.35C975.07,1861.74 1008.68,1895.35 1050.07,1895.35C1091.46,1895.35 1125.07,1861.74 1125.07,1820.35Z"/>
    </g>
    <g transform="matrix(6.12323e-17,-1,1,6.12323e-17,144.532,2100.03)">
        <path fill="#fff" d="M1125.07,1820.35L1125.07,1531.47C1125.07,1490.07 1091.46,1456.47 1050.07,1456.47C1008.68,1456.47 975.07,1490.07 975.07,1531.47L975.07,1820.35C975.07,1861.74 1008.68,1895.35 1050.07,1895.35C1091.46,1895.35 1125.07,1861.74 1125.07,1820.35Z"/>
    </g>
    <g transform="matrix(6.12323e-17,-1,1,6.12323e-17,-1396.21,2100.03)">
        <path fill="#fff" d="M1125.07,1820.35L1125.07,1531.47C1125.07,1490.07 1091.46,1456.47 1050.07,1456.47C1008.68,1456.47 975.07,1490.07 975.07,1531.47L975.07,1820.35C975.07,1861.74 1008.68,1895.35 1050.07,1895.35C1091.46,1895.35 1125.07,1861.74 1125.07,1820.35Z"/>
    </g>
    <g transform="matrix(0.707382,0.706832,-0.706832,0.707382,947.333,-332.806)">
        <path fill="#fff" d="M1125.07,1820.35L1125.07,1531.47C1125.07,1490.07 1091.46,1456.47 1050.07,1456.47C1008.68,1456.47 975.07,1490.07 975.07,1531.47L975.07,1820.35C975.07,1861.74 1008.68,1895.35 1050.07,1895.35C1091.46,1895.35 1125.07,1861.74 1125.07,1820.35Z"/>
    </g>
    <g transform="matrix(0.707382,0.706832,-0.706832,0.707382,2036.38,-1422.7)">
        <path fill="#fff" d="M1125.07,1820.35L1125.07,1531.47C1125.07,1490.07 1091.46,1456.47 1050.07,1456.47C1008.68,1456.47 975.07,1490.07 975.07,1531.47L975.07,1820.35C975.07,1861.74 1008.68,1895.35 1050.07,1895.35C1091.46,1895.35 1125.07,1861.74 1125.07,1820.35Z"/>
    </g>
    <g transform="matrix(0.706832,-0.707382,0.707382,0.706832,-332.698,1152.7)">
        <path fill="#fff" d="M1125.07,1820.35L1125.07,1531.47C1125.07,1490.07 1091.46,1456.47 1050.07,1456.47C1008.68,1456.47 975.07,1490.07 975.07,1531.47L975.07,1820.35C975.07,1861.74 1008.68,1895.35 1050.07,1895.35C1091.46,1895.35 1125.07,1861.74 1125.07,1820.35Z"/>
    </g>
    <g transform="matrix(0.706832,-0.707382,0.707382,0.706832,-1422.59,63.6547)">
        <path fill="#fff" d="M1125.07,1820.35L1125.07,1531.47C1125.07,1490.07 1091.46,1456.47 1050.07,1456.47C1008.68,1456.47 975.07,1490.07 975.07,1531.47L975.07,1820.35C975.07,1861.74 1008.68,1895.35 1050.07,1895.35C1091.46,1895.35 1125.07,1861.74 1125.07,1820.35Z"/>
    </g>
</svg>
