<?xml version="1.0" encoding="UTF-8" standalone="no"?>
<svg width="100%" height="100%" viewBox="0 0 2100 2100" version="1.1" xmlns="http://www.w3.org/2000/svg" xmlnsXlink="http://www.w3.org/1999/xlink" xmlSpace="preserve" xmlnsSerif="http://www.serif.com/" style="fill-rule:evenodd;clip-rule:evenodd;stroke-linejoin:round;stroke-miterlimit:2;">
    <path fill="#fff" d="M1970.5,579.5C1970.5,460.153 1923.09,345.693 1838.7,261.302C1754.31,176.911 1639.85,129.5 1520.5,129.5L579.5,129.5C460.153,129.5 345.693,176.911 261.302,261.302C176.911,345.693 129.5,460.153 129.5,579.5L129.5,1520.5C129.5,1639.85 176.911,1754.31 261.302,1838.7C345.693,1923.09 460.153,1970.5 579.5,1970.5L1520.5,1970.5C1639.85,1970.5 1754.31,1923.09 1838.7,1838.7C1923.09,1754.31 1970.5,1639.85 1970.5,1520.5L1970.5,579.5ZM1820.55,579.45C1820.55,413.765 1686.24,279.45 1520.55,279.45L579.45,279.45C413.765,279.45 279.45,413.765 279.45,579.45L279.45,1520.55C279.45,1686.24 413.765,1820.55 579.45,1820.55L1520.55,1820.55C1686.24,1820.55 1820.55,1686.24 1820.55,1520.55L1820.55,579.45Z"/>
    <path fill="#fff" d="M975,1452.66L975,722.356L750,722.356C708.606,722.356 675,688.749 675,647.356C675,605.962 708.606,572.356 750,572.356L1049.55,572.356L1050,572.344L1350,572.356C1391.4,572.357 1425,605.965 1425,647.358C1425,688.752 1391.39,722.357 1350,722.356C1350,722.356 1213.86,722.351 1125,722.347L1125,1452.66C1125,1494.05 1091.39,1527.66 1050,1527.66C1008.61,1527.66 975,1494.05 975,1452.66Z"/>
</svg>
