<?xml version="1.0" encoding="UTF-8" standalone="no"?>
<svg width="100%" height="100%" viewBox="0 0 2100 2100" version="1.1" xmlns="http://www.w3.org/2000/svg" xmlnsXlink="http://www.w3.org/1999/xlink" xmlSpace="preserve" xmlnsSerif="http://www.serif.com/" style="fill-rule:evenodd;clip-rule:evenodd;stroke-linejoin:round;stroke-miterlimit:2;">
    <g transform="matrix(1,0,0,1,-4.54747e-13,-130.992)">
        <path fill="#fff" d="M529.36,1895.31L1570.64,1895.31C1649.63,1895.31 1722.84,1853.88 1763.52,1786.17C1804.19,1718.45 1806.38,1634.37 1769.28,1564.63C1629.11,1301.16 1395.18,861.451 1248.64,586.001C1209.57,512.569 1133.18,466.679 1050,466.679C966.822,466.679 890.429,512.569 851.362,586.001C704.819,861.451 470.887,1301.16 330.721,1564.63C293.62,1634.37 295.807,1718.45 336.484,1786.17C377.16,1853.88 450.367,1895.31 529.36,1895.31ZM529.36,1745.31C503.029,1745.31 478.626,1731.5 465.068,1708.92C451.509,1686.35 450.78,1658.33 463.147,1635.08C603.312,1371.62 837.245,931.903 983.787,656.454C996.81,631.976 1022.27,616.679 1050,616.679C1077.73,616.679 1103.19,631.976 1116.21,656.453C1262.76,931.903 1496.69,1371.62 1636.85,1635.08C1649.22,1658.33 1648.49,1686.35 1634.93,1708.92C1621.37,1731.5 1596.97,1745.31 1570.64,1745.31L529.36,1745.31Z"/>
    </g>
    <g transform="matrix(1,0,0,1,1.13687e-12,-38.2871)">
        <path fill="#fff" d="M1125.07,1242.54L1125.07,837C1125.07,795.606 1091.46,762 1050.07,762C1008.68,762 975.07,795.606 975.07,837L975.07,1242.54C975.07,1283.94 1008.68,1317.54 1050.07,1317.54C1091.46,1317.54 1125.07,1283.94 1125.07,1242.54Z"/>
    </g>
    <g transform="matrix(1,0,0,1,1,-108.863)">
        <circle cx="1049" cy="1527" r="75"/>
    </g>
</svg>
