<?xml version="1.0" encoding="UTF-8" standalone="no"?>
<svg width="100%" height="100%" viewBox="0 0 2100 2100" version="1.1" xmlns="http://www.w3.org/2000/svg" xmlnsXlink="http://www.w3.org/1999/xlink" xmlSpace="preserve" xmlnsSerif="http://www.serif.com/" style="fill-rule:evenodd;clip-rule:evenodd;stroke-linejoin:round;stroke-miterlimit:2;">
    <g transform="matrix(1,0,0,1,-26.5605,26.9474)">
        <path d="M1262.77,445.542L402.181,1306.13C395.865,1312.45 389.792,1318.98 383.975,1325.71C381.546,1328.52 379.162,1331.36 376.822,1334.24L376.195,1335.01L375.356,1336.05C373.402,1338.49 371.481,1340.94 369.591,1343.42L368.783,1344.49C365.56,1348.75 362.43,1353.08 359.395,1357.47L358.639,1358.57C355.871,1362.61 353.187,1366.7 350.584,1370.85L349.877,1371.98C348.466,1374.24 347.079,1376.53 345.716,1378.82C344.808,1380.35 343.911,1381.89 343.025,1383.43L342.362,1384.59C342.143,1384.98 341.924,1385.37 341.704,1385.75L341.379,1386.33C338.377,1391.67 335.511,1397.09 332.779,1402.57C328.776,1410.6 325.06,1418.79 321.644,1427.12C321.205,1428.19 320.773,1429.26 320.347,1430.33L319.852,1431.57C318.307,1435.48 316.826,1439.43 315.411,1443.4C314.576,1445.75 313.762,1448.11 312.971,1450.48C278.058,1555.22 217.865,1735.8 179.73,1850.2C176.531,1859.8 176.079,1869.87 178.131,1879.39C180.334,1889.62 185.428,1899.2 193.111,1906.89C203.658,1917.44 217.798,1923.1 232.245,1923.11C232.905,1923.12 233.565,1923.1 234.224,1923.08L235.106,1923.04L236.06,1922.99L236.537,1922.95C240.989,1922.61 245.441,1921.72 249.796,1920.27C364.202,1882.13 544.781,1821.94 649.52,1787.03C703.908,1768.9 753.327,1738.36 793.865,1697.82L1932.3,559.383C1990.88,500.804 1990.88,405.83 1932.3,347.251C1876.36,291.307 1807.92,222.869 1751.98,166.925C1693.4,108.346 1598.42,108.346 1539.84,166.925C1426.21,280.554 1262,444.768 1262,444.768L1262.77,445.542ZM1438.99,537.383C1455.38,520.989 1477.62,511.778 1500.8,511.778C1523.99,511.778 1546.22,520.989 1562.62,537.383C1562.62,537.384 1562.62,537.384 1562.62,537.385C1579.01,553.779 1588.22,576.015 1588.22,599.199C1588.22,622.384 1579.01,644.619 1562.62,661.013C1349.71,873.917 659.838,1563.79 659.838,1563.79C653.631,1570 646.995,1575.73 639.991,1580.93C614.679,1599.68 579.455,1597.07 557.182,1574.8C547.248,1564.88 536.309,1553.94 526.309,1543.94C505.338,1522.97 501.646,1490.29 517.411,1465.17C523.504,1455.48 530.049,1446.32 536.208,1440.16C536.208,1440.16 1226.08,750.286 1438.99,537.383Z"/>
    </g>
</svg>
