<?xml version="1.0" encoding="UTF-8" standalone="no"?>
<svg width="100%" height="100%" viewBox="0 0 2100 2100" version="1.1" xmlns="http://www.w3.org/2000/svg" xmlnsXlink="http://www.w3.org/1999/xlink" xmlSpace="preserve" xmlnsSerif="http://www.serif.com/" style="fill-rule:evenodd;clip-rule:evenodd;stroke-linejoin:round;stroke-miterlimit:2;">
    <g transform="matrix(1.51489,0,0,1.51489,-172.969,58.2441)">
        <path d="M155.902,861.281C155.902,871.371 158.697,878.802 164.287,883.574C169.878,888.346 176.49,890.732 184.126,890.732C187.944,890.732 190.943,890.187 193.125,889.096L174.309,873.961L195.579,848.601L212.35,862.099L212.35,443.157C212.35,433.067 209.555,425.636 203.964,420.864C198.374,416.092 191.761,413.706 184.126,413.706C176.49,413.706 169.878,416.092 164.287,420.864C158.697,425.636 155.902,433.067 155.902,443.157L155.902,861.281ZM114.18,443.157C114.18,431.431 116.225,421.068 120.315,412.07C124.406,403.071 129.86,395.572 136.677,389.572C143.222,383.846 150.653,379.483 158.97,376.483C167.287,373.483 175.672,371.984 184.126,371.984C192.579,371.984 200.965,373.483 209.282,376.483C217.599,379.483 225.166,383.846 231.984,389.572C238.528,395.572 243.846,403.071 247.936,412.07C252.027,421.068 254.072,431.431 254.072,443.157L254.072,861.281C254.072,872.734 252.027,882.688 247.936,891.141L273.706,912.002L252.436,937.363L227.893,917.32C215.349,927.409 200.76,932.454 184.126,932.454C175.672,932.454 167.287,930.954 158.97,927.955C150.653,924.955 143.222,920.456 136.677,914.456C129.86,908.73 124.406,901.503 120.315,892.777C116.225,884.051 114.18,873.552 114.18,861.281L114.18,443.157Z" style="fill-rule:nonzero;"/>
        <path d="M425.869,374.438L425.869,864.553C425.869,874.098 424.165,882.892 420.756,890.937C417.348,898.981 412.507,906.139 406.235,912.411C399.963,918.683 392.737,923.592 384.556,927.137C376.375,930.682 367.649,932.454 358.378,932.454C349.106,932.454 340.448,930.682 332.403,927.137C324.359,923.592 317.201,918.683 310.929,912.411C304.657,906.139 299.748,898.981 296.203,890.937C292.658,882.892 290.886,874.098 290.886,864.553L290.886,374.438L332.608,374.438L332.608,860.463C332.608,870.825 335.062,878.461 339.971,883.369C344.879,888.278 351.015,890.732 358.378,890.732C365.74,890.732 371.876,888.278 376.784,883.369C381.693,878.461 384.147,870.825 384.147,860.463L384.147,374.438L425.869,374.438Z" style="fill-rule:nonzero;"/>
        <rect x="466.365" y="374.438" width="41.722" height="555.562" style="fill-rule:nonzero;"/>
        <path d="M681.111,846.965L681.111,864.962C681.111,873.961 679.407,882.483 675.998,890.527C672.59,898.572 667.886,905.73 661.886,912.002C655.887,918.274 648.865,923.251 640.821,926.932C632.776,930.614 624.118,932.454 614.847,932.454C606.939,932.454 598.894,931.363 590.713,929.182C582.532,927 575.17,923.183 568.625,917.729C562.08,912.275 556.695,905.253 552.468,896.663C548.241,888.073 546.128,877.097 546.128,863.735L546.128,439.066C546.128,429.522 547.764,420.659 551.036,412.479C554.308,404.298 558.944,397.208 564.944,391.208C570.943,385.209 578.101,380.505 586.418,377.097C594.735,373.688 603.939,371.984 614.029,371.984C633.663,371.984 649.615,378.392 661.886,391.208C667.886,397.48 672.59,404.911 675.998,413.501C679.407,422.091 681.111,431.431 681.111,441.521L681.111,457.882L639.389,457.882L639.389,443.975C639.389,435.794 637.071,428.704 632.435,422.705C627.8,416.705 621.528,413.706 613.62,413.706C603.257,413.706 596.372,416.91 592.963,423.318C589.554,429.727 587.85,437.839 587.85,447.656L587.85,860.872C587.85,869.325 589.691,876.416 593.372,882.142C597.053,887.869 603.666,890.732 613.21,890.732C615.937,890.732 618.869,890.255 622.005,889.3C625.141,888.346 628.072,886.778 630.799,884.596C633.254,882.415 635.299,879.415 636.935,875.597C638.571,871.78 639.389,867.008 639.389,861.281L639.389,846.965L681.111,846.965Z" style="fill-rule:nonzero;"/>
        <path d="M715.062,930L715.062,374.438L756.784,374.438L756.784,657.594L757.602,657.594L818.549,374.438L860.272,374.438L803.415,641.232L870.907,930L826.73,930L779.281,686.636L756.784,767.714L756.784,930L715.062,930Z" style="fill-rule:nonzero;"/>
        <path d="M887.677,930L887.677,374.438L927.763,374.438L990.756,700.134L991.574,700.134L991.574,374.438L1033.3,374.438L1033.3,930L994.028,930L930.218,640.823L929.4,640.823L929.4,930L887.677,930Z" style="fill-rule:nonzero;"/>
        <path d="M1068.47,443.157C1068.47,431.431 1070.52,421.068 1074.61,412.07C1078.7,403.071 1084.15,395.572 1090.97,389.572C1097.52,383.846 1104.95,379.483 1113.26,376.483C1121.58,373.483 1129.97,371.984 1138.42,371.984C1146.87,371.984 1155.26,373.483 1163.58,376.483C1171.89,379.483 1179.46,383.846 1186.28,389.572C1192.82,395.572 1198.14,403.071 1202.23,412.07C1206.32,421.068 1208.37,431.431 1208.37,443.157L1208.37,861.281C1208.37,873.552 1206.32,884.051 1202.23,892.777C1198.14,901.503 1192.82,908.73 1186.28,914.456C1179.46,920.456 1171.89,924.955 1163.58,927.955C1155.26,930.954 1146.87,932.454 1138.42,932.454C1129.97,932.454 1121.58,930.954 1113.26,927.955C1104.95,924.955 1097.52,920.456 1090.97,914.456C1084.15,908.73 1078.7,901.503 1074.61,892.777C1070.52,884.051 1068.47,873.552 1068.47,861.281L1068.47,443.157ZM1110.2,861.281C1110.2,871.371 1112.99,878.802 1118.58,883.574C1124.17,888.346 1130.78,890.732 1138.42,890.732C1146.06,890.732 1152.67,888.346 1158.26,883.574C1163.85,878.802 1166.64,871.371 1166.64,861.281L1166.64,443.157C1166.64,433.067 1163.85,425.636 1158.26,420.864C1152.67,416.092 1146.06,413.706 1138.42,413.706C1130.78,413.706 1124.17,416.092 1118.58,420.864C1112.99,425.636 1110.2,433.067 1110.2,443.157L1110.2,861.281Z" style="fill-rule:nonzero;"/>
        <path d="M1267.68,930L1267.68,413.706L1219.41,413.706L1219.41,374.438L1357.67,374.438L1357.67,413.706L1309.4,413.706L1309.4,930L1267.68,930Z" style="fill-rule:nonzero;"/>
        <path d="M1376.07,930L1376.07,374.438L1500.42,374.438L1500.42,413.706L1417.8,413.706L1417.8,636.413L1489.79,636.413L1489.79,675.681L1417.8,675.681L1417.8,888.278L1500.42,888.278L1500.42,930L1376.07,930Z" style="fill-rule:nonzero;"/>
    </g>
</svg>
