<?xml version="1.0" encoding="UTF-8" standalone="no"?>
<svg width="100%" height="100%" viewBox="0 0 2100 2100" version="1.1" xmlns="http://www.w3.org/2000/svg" xmlnsXlink="http://www.w3.org/1999/xlink" xmlSpace="preserve" xmlnsSerif="http://www.serif.com/" style="fill-rule:evenodd;clip-rule:evenodd;stroke-linejoin:round;stroke-miterlimit:2;">
    <g transform="matrix(1,0,0,1.55732,-48.93,-821.145)">
        <path d="M932.483,1531.42L932.483,1242.54C932.483,1215.96 898.876,1194.38 857.483,1194.38C816.089,1194.38 782.483,1215.96 782.483,1242.54L782.483,1531.42C782.483,1558 816.089,1579.58 857.483,1579.58C898.876,1579.58 932.483,1558 932.483,1531.42Z"/>
    </g>
    <g transform="matrix(1,0,0,1.55732,192.587,-821.145)">
        <path d="M932.483,1531.42L932.483,1242.54C932.483,1215.96 898.876,1194.38 857.483,1194.38C816.089,1194.38 782.483,1215.96 782.483,1242.54L782.483,1531.42C782.483,1558 816.089,1579.58 857.483,1579.58C898.876,1579.58 932.483,1558 932.483,1531.42Z"/>
    </g>
    <g transform="matrix(1,0,0,1.55732,434.104,-821.145)">
        <path d="M932.483,1531.42L932.483,1242.54C932.483,1215.96 898.876,1194.38 857.483,1194.38C816.089,1194.38 782.483,1215.96 782.483,1242.54L782.483,1531.42C782.483,1558 816.089,1579.58 857.483,1579.58C898.876,1579.58 932.483,1558 932.483,1531.42Z"/>
    </g>
    <path d="M782.483,643.488L782.483,782.369L718.532,782.369C658.858,782.369 601.629,806.074 559.433,848.27C517.237,890.466 493.532,947.695 493.532,1007.37C493.532,1007.37 493.532,1670.31 493.532,1670.31C493.532,1729.98 517.237,1787.21 559.433,1829.4C601.629,1871.6 658.858,1895.31 718.532,1895.31L1381.47,1895.31C1441.14,1895.31 1498.37,1871.6 1540.57,1829.4C1582.76,1787.21 1606.47,1729.98 1606.47,1670.31C1606.47,1489.65 1606.47,1188.02 1606.47,1007.37C1606.47,947.695 1582.76,890.466 1540.57,848.27C1498.37,806.074 1441.14,782.369 1381.47,782.369L1317.66,782.369L1317.66,643.488L1387.05,643.488C1508.23,643.488 1606.47,545.25 1606.47,424.067L1606.47,424.066C1606.47,302.887 1508.24,204.65 1387.06,204.645C1205.26,204.636 894.795,204.622 712.979,204.614C654.779,204.611 598.962,227.729 557.807,268.882C516.653,310.035 493.532,365.851 493.532,424.051L493.532,424.052C493.532,545.243 591.777,643.488 712.968,643.488L782.483,643.488ZM718.532,932.369L1381.47,932.369C1401.36,932.369 1420.44,940.271 1434.5,954.336C1448.57,968.401 1456.47,987.478 1456.47,1007.37L1456.47,1670.31C1456.47,1690.2 1448.57,1709.27 1434.5,1723.34C1420.44,1737.4 1401.36,1745.31 1381.47,1745.31L718.532,1745.31C698.641,1745.31 679.564,1737.4 665.499,1723.34C651.434,1709.27 643.532,1690.2 643.532,1670.31L643.532,1007.37C643.532,987.478 651.434,968.401 665.499,954.336C679.564,940.271 698.641,932.369 718.532,932.369ZM932.483,643.488L932.483,782.369L1167.66,782.369L1167.66,643.488L932.483,643.488ZM643.532,424.052L643.532,424.051C643.532,405.635 650.848,387.973 663.871,374.951C676.893,361.929 694.556,354.613 712.972,354.614C894.788,354.622 1205.25,354.636 1387.05,354.645C1425.39,354.646 1456.47,385.727 1456.47,424.066C1456.47,424.066 1456.47,424.067 1456.47,424.067C1456.47,462.407 1425.39,493.488 1387.05,493.488C1387.05,493.488 712.968,493.488 712.968,493.488C674.62,493.488 643.532,462.401 643.532,424.052Z"/>
</svg>
