<?xml version="1.0" encoding="UTF-8" standalone="no"?>
<svg width="100%" height="100%" viewBox="0 0 2100 2100" version="1.1" xmlns="http://www.w3.org/2000/svg" xmlnsXlink="http://www.w3.org/1999/xlink" xmlSpace="preserve" xmlnsSerif="http://www.serif.com/" style="fill-rule:evenodd;clip-rule:evenodd;stroke-linejoin:round;stroke-miterlimit:2;">
    <path d="M376.488,931.313L376.488,1692.39C376.488,1746.2 397.866,1797.82 435.921,1835.87C473.975,1873.93 525.587,1895.31 579.404,1895.31C579.404,1895.31 810.682,1895.31 810.682,1895.31C852.103,1895.31 885.682,1861.73 885.682,1820.31L885.682,1366.18C885.682,1339.32 907.456,1317.54 934.315,1317.54C934.315,1317.54 1165.86,1317.54 1165.86,1317.54C1192.72,1317.54 1214.49,1339.32 1214.49,1366.18C1214.49,1535.92 1214.49,1820.35 1214.49,1820.35C1214.49,1840.24 1222.39,1859.32 1236.46,1873.38C1250.53,1887.45 1269.61,1895.35 1289.5,1895.35C1289.5,1895.35 1417.48,1895.33 1520.62,1895.32C1632.68,1895.31 1723.51,1804.46 1723.51,1692.4L1723.51,931.313C1794.13,924.177 1856.85,881.298 1888.82,816.848C1923.92,746.087 1915.89,661.546 1868.1,598.654C1806.13,517.1 1737.6,426.906 1684.21,356.652C1611.42,260.858 1498.03,204.608 1377.71,204.608L722.287,204.608C601.975,204.608 488.583,260.858 415.791,356.652C415.791,356.652 231.897,598.654 231.897,598.654C184.106,661.546 176.08,746.087 211.183,816.848C243.155,881.298 305.874,924.177 376.488,931.313ZM526.488,932.369L1573.51,932.369C1573.51,932.369 1573.51,1692.4 1573.51,1692.4C1573.51,1721.63 1549.83,1745.32 1520.6,1745.32C1520.6,1745.32 1364.49,1745.34 1364.49,1745.34C1364.49,1745.34 1364.49,1366.18 1364.49,1366.18C1364.49,1256.47 1275.56,1167.54 1165.86,1167.54L934.315,1167.54C824.613,1167.54 735.682,1256.47 735.682,1366.18L735.682,1745.31C735.682,1745.31 579.404,1745.31 579.404,1745.31C565.37,1745.31 551.91,1739.73 541.987,1729.81C532.063,1719.88 526.488,1706.42 526.488,1692.39L526.488,932.369ZM1702.56,782.369L397.443,782.369C375.44,782.369 355.336,769.901 345.558,750.189C335.779,730.477 338.015,706.927 351.328,689.408C413.3,607.854 481.836,517.66 535.222,447.405C579.649,388.939 648.857,354.608 722.287,354.608C722.287,354.608 1377.71,354.608 1377.71,354.608C1451.14,354.608 1520.35,388.939 1564.78,447.405C1618.16,517.66 1686.7,607.854 1748.67,689.408C1761.99,706.927 1764.22,730.477 1754.44,750.189C1744.66,769.901 1724.56,782.369 1702.56,782.369Z"/>
</svg>
