<?xml version="1.0" encoding="UTF-8" standalone="no"?>
<svg width="100%" height="100%" viewBox="0 0 2100 2100" version="1.1" xmlns="http://www.w3.org/2000/svg" xmlnsXlink="http://www.w3.org/1999/xlink" xmlSpace="preserve" xmlnsSerif="http://www.serif.com/" style="fill-rule:evenodd;clip-rule:evenodd;stroke-linecap:round;stroke-linejoin:round;stroke-miterlimit:1.5;">
    <path d="M1970.5,579.5C1970.5,460.153 1923.09,345.693 1838.7,261.302C1754.31,176.911 1639.85,129.5 1520.5,129.5L579.5,129.5C460.153,129.5 345.693,176.911 261.302,261.302C176.911,345.693 129.5,460.153 129.5,579.5L129.5,1520.5C129.5,1639.85 176.911,1754.31 261.302,1838.7C345.693,1923.09 460.153,1970.5 579.5,1970.5L1520.5,1970.5C1639.85,1970.5 1754.31,1923.09 1838.7,1838.7C1923.09,1754.31 1970.5,1639.85 1970.5,1520.5L1970.5,579.5ZM1820.55,579.45C1820.55,413.765 1686.24,279.45 1520.55,279.45L579.45,279.45C413.765,279.45 279.45,413.765 279.45,579.45L279.45,1520.55C279.45,1686.24 413.765,1820.55 579.45,1820.55L1520.55,1820.55C1686.24,1820.55 1820.55,1686.24 1820.55,1520.55L1820.55,579.45Z"/>
    <g transform="matrix(1,0,0,1,0,108.5)">
        <path d="M1050,599L1050,1284" style="fill:none;stroke:black;stroke-width:150px;"/>
    </g>
    <g transform="matrix(6.12323e-17,-1,1,6.12323e-17,108.5,2100)">
        <path d="M1050,599L1050,1284" style="fill:none;stroke:black;stroke-width:150px;"/>
    </g>
</svg>
