<?xml version="1.0" encoding="UTF-8" standalone="no"?>
<svg width="100%" height="100%" viewBox="0 0 2100 2100" version="1.1" xmlns="http://www.w3.org/2000/svg" xmlnsXlink="http://www.w3.org/1999/xlink" xmlSpace="preserve" xmlnsSerif="http://www.serif.com/" style="fill-rule:evenodd;clip-rule:evenodd;stroke-linecap:round;stroke-linejoin:round;stroke-miterlimit:1.5;">
    <g transform="matrix(1,0,0,1,0,-2)">
        <path d="M1970.5,579.5C1970.5,460.153 1923.09,345.693 1838.7,261.302C1754.31,176.911 1639.85,129.5 1520.5,129.5L579.5,129.5C460.153,129.5 345.693,176.911 261.302,261.302C176.911,345.693 129.5,460.153 129.5,579.5L129.5,1520.5C129.5,1639.85 176.911,1754.31 261.302,1838.7C345.693,1923.09 460.153,1970.5 579.5,1970.5L1520.5,1970.5C1639.85,1970.5 1754.31,1923.09 1838.7,1838.7C1923.09,1754.31 1970.5,1639.85 1970.5,1520.5L1970.5,579.5ZM1820.55,579.45C1820.55,413.765 1686.24,279.45 1520.55,279.45L579.45,279.45C413.765,279.45 279.45,413.765 279.45,579.45L279.45,1520.55C279.45,1686.24 413.765,1820.55 579.45,1820.55L1520.55,1820.55C1686.24,1820.55 1820.55,1686.24 1820.55,1520.55L1820.55,579.45Z"/>
    </g>
    <g transform="matrix(-1,0,0,1,1754.44,-1.94959)">
        <path d="M1050.07,1531.42L1050.07,568.488" style="fill:none;stroke:black;stroke-width:150px;"/>
    </g>
    <g transform="matrix(-0.630835,0,0,1,2043.04,-1.94959)">
        <path d="M1641.25,551.567L1403.57,1199C1403.57,1199 1165.89,551.567 1165.89,551.567C1151.09,511.241 1087.17,486.083 1023.25,495.422C959.321,504.761 919.441,545.083 934.245,585.409L1287.75,1548.35C1300.23,1582.35 1348.24,1606.42 1403.57,1606.42C1458.9,1606.42 1506.91,1582.35 1519.39,1548.35L1872.89,585.409C1887.7,545.083 1847.82,504.761 1783.89,495.422C1719.97,486.083 1656.05,511.241 1641.25,551.567Z"/>
    </g>
</svg>
