<?xml version="1.0" encoding="UTF-8" standalone="no"?>
<svg width="100%" height="100%" viewBox="0 0 2100 2100" version="1.1" xmlns="http://www.w3.org/2000/svg" xmlnsXlink="http://www.w3.org/1999/xlink" xmlSpace="preserve" xmlnsSerif="http://www.serif.com/" style="fill-rule:evenodd;clip-rule:evenodd;stroke-linejoin:round;stroke-miterlimit:2;">
    <g transform="matrix(1.08973,0,0,0.919329,-106.046,84.7049)">
        <path d="M1562.36,452.825C1562.36,366.278 1533.35,283.276 1481.72,222.078C1430.1,160.881 1360.07,126.5 1287.06,126.5L834.651,126.5C761.638,126.5 691.615,160.881 639.986,222.078C588.358,283.276 559.354,366.278 559.354,452.825L559.354,1647.17C559.354,1733.72 588.358,1816.72 639.986,1877.92C691.615,1939.12 761.638,1973.5 834.651,1973.5L1287.06,1973.5C1360.07,1973.5 1430.1,1939.12 1481.72,1877.92C1533.35,1816.72 1562.36,1733.72 1562.36,1647.17L1562.36,452.825Z" style="fill:white;fill-opacity:0;"/>
    </g>
    <g transform="matrix(1.08973,0,0,0.919329,-106.046,84.7049)">
        <path d="M1631.18,452.825C1631.18,344.642 1594.93,240.889 1530.39,164.392C1465.86,87.894 1378.33,44.919 1287.06,44.919L834.651,44.919C743.384,44.919 655.856,87.894 591.32,164.392C526.785,240.889 490.529,344.642 490.529,452.825C490.529,789.238 490.529,1310.76 490.529,1647.17C490.529,1755.36 526.785,1859.11 591.32,1935.61C655.855,2012.11 743.384,2055.08 834.651,2055.08C834.651,2055.08 1287.06,2055.08 1287.06,2055.08C1378.33,2055.08 1465.86,2012.11 1530.39,1935.61C1594.93,1859.11 1631.18,1755.36 1631.18,1647.17L1631.18,452.825ZM1493.53,452.825L1493.53,1647.17C1493.53,1712.09 1471.78,1774.34 1433.06,1820.24C1394.34,1866.13 1341.82,1891.92 1287.06,1891.92L834.651,1891.92C779.891,1891.92 727.374,1866.13 688.652,1820.24C649.931,1774.34 628.178,1712.09 628.178,1647.17L628.178,452.825C628.178,387.915 649.931,325.663 688.652,279.765C727.374,233.867 779.891,208.081 834.651,208.081L1287.06,208.081C1341.82,208.081 1394.34,233.867 1433.06,279.765C1471.78,325.663 1493.53,387.915 1493.53,452.825Z"/>
    </g>
    <g transform="matrix(2.89262,0,0,2.91862,-1383.4,-1134.75)">
        <path d="M867,674.697C867,667.882 864.268,661.346 859.406,656.526C854.543,651.707 847.948,649 841.072,649L743.928,649C737.052,649 730.457,651.707 725.594,656.526C720.732,661.346 718,667.882 718,674.697L718,772.303C718,779.118 720.732,785.654 725.594,790.474C730.457,795.293 737.052,798 743.928,798L841.072,798C847.948,798 854.543,795.293 859.406,790.474C864.268,785.654 867,779.118 867,772.303L867,674.697Z"/>
    </g>
    <g transform="matrix(4.78523,0,0,1.68898,-2742.3,-691.021)">
        <path d="M867,693.406C867,681.628 865.349,670.334 862.409,662.006C859.47,653.678 855.484,649 851.327,649L733.673,649C729.516,649 725.53,653.678 722.591,662.006C719.651,670.334 718,681.628 718,693.406L718,753.594C718,765.372 719.651,776.666 722.591,784.994C725.53,793.322 729.516,798 733.673,798L851.327,798C855.484,798 859.47,793.322 862.409,784.994C865.349,776.666 867,765.372 867,753.594L867,693.406Z"/>
    </g>
    <g transform="matrix(1,0,0,2.91862,539.5,-1134.75)">
        <path d="M867,674.525C867,667.755 859.151,661.263 845.18,656.476C831.209,651.689 812.26,649 792.502,649L792.5,649C751.355,649 718,660.428 718,674.526L718,772.474C718,786.572 751.355,798 792.5,798L792.502,798C812.26,798 831.209,795.311 845.18,790.524C859.151,785.737 867,779.245 867,772.475C867,745.104 867,701.896 867,674.525Z"/>
    </g>
    <g transform="matrix(4.78523,0,0,1,-2742.3,647.969)">
        <path d="M867,723.5C867,682.355 860.03,649 851.431,649C822.817,649 762.183,649 733.569,649C724.97,649 718,682.355 718,723.5L718,723.5C718,764.645 724.97,798 733.569,798C762.183,798 822.817,798 851.431,798C860.03,798 867,764.645 867,723.5L867,723.5Z"/>
    </g>
    <g transform="matrix(2.89262,0,0,1,-1383.4,899.625)">
        <path d="M867,723.5C867,703.741 864.287,684.792 859.456,670.821C854.626,656.849 848.075,649 841.245,649C813.939,649 771.061,649 743.755,649C736.925,649 730.374,656.849 725.544,670.821C720.713,684.792 718,703.741 718,723.5L718,723.502C718,743.26 720.713,762.209 725.543,776.18C730.373,790.151 736.924,798 743.755,798C771.061,798 813.939,798 841.245,798C848.076,798 854.627,790.151 859.457,776.18C864.287,762.209 867,743.26 867,723.502L867,723.5Z"/>
    </g>
    <g transform="matrix(1,0,0,1,539.5,899.625)">
        <path d="M867,723.5C867,682.355 833.645,649 792.5,649C792.5,649 792.5,649 792.5,649C751.355,649 718,682.355 718,723.5C718,723.5 718,723.5 718,723.5C718,764.645 751.355,798 792.5,798C792.5,798 792.5,798 792.5,798C833.645,798 867,764.645 867,723.5L867,723.5Z"/>
    </g>
</svg>
