<?xml version="1.0" encoding="UTF-8" standalone="no"?>
<svg width="100%" height="100%" viewBox="0 0 2100 2100" version="1.1" xmlns="http://www.w3.org/2000/svg" xmlnsXlink="http://www.w3.org/1999/xlink" xmlSpace="preserve" xmlnsSerif="http://www.serif.com/" style="fill-rule:evenodd;clip-rule:evenodd;stroke-linecap:round;stroke-linejoin:round;stroke-miterlimit:1.5;">
    <g transform="matrix(6.67267e-17,-1.08973,0.919329,5.62926e-17,84.7049,2281.92)">
        <path d="M1562.36,452.825C1562.36,366.278 1533.35,283.276 1481.72,222.078C1430.1,160.881 1360.07,126.5 1287.06,126.5L834.651,126.5C761.638,126.5 691.615,160.881 639.986,222.078C588.358,283.276 559.354,366.278 559.354,452.825L559.354,1647.17C559.354,1733.72 588.358,1816.72 639.986,1877.92C691.615,1939.12 761.638,1973.5 834.651,1973.5L1287.06,1973.5C1360.07,1973.5 1430.1,1939.12 1481.72,1877.92C1533.35,1816.72 1562.36,1733.72 1562.36,1647.17L1562.36,452.825Z" style="fill:white;fill-opacity:0;stroke:black;stroke-width:148.79px;"/>
    </g>
    <g transform="matrix(1,0,0,1,300,391)">
        <path d="M750,525L1314,525C1355.39,525 1389,491.394 1389,450C1389,408.606 1355.39,375 1314,375L750,375C708.606,375 675,408.606 675,450C675,491.394 708.606,525 750,525Z"/>
    </g>
    <g transform="matrix(2.89262,0,0,2.91862,-1665.4,-1128.69)">
        <path d="M867,674.697C867,667.882 864.268,661.346 859.406,656.526C854.543,651.707 847.948,649 841.072,649L743.928,649C737.052,649 730.457,651.707 725.594,656.526C720.732,661.346 718,667.882 718,674.697L718,772.303C718,779.118 720.732,785.654 725.594,790.474C730.457,795.293 737.052,798 743.928,798L841.072,798C847.948,798 854.543,795.293 859.406,790.474C864.268,785.654 867,779.118 867,772.303L867,674.697Z"/>
    </g>
    <g transform="matrix(1,0,0,1,821.5,686.75)">
        <path d="M867,723.5C867,682.355 833.645,649 792.5,649C792.5,649 792.5,649 792.5,649C751.355,649 718,682.355 718,723.5C718,723.5 718,723.5 718,723.5C718,764.645 751.355,798 792.5,798C792.5,798 792.5,798 792.5,798C833.645,798 867,764.645 867,723.5L867,723.5Z"/>
    </g>
    <g transform="matrix(1,0,0,1,539.5,686.75)">
        <path d="M867,723.5C867,682.355 833.645,649 792.5,649C792.5,649 792.5,649 792.5,649C751.355,649 718,682.355 718,723.5C718,723.5 718,723.5 718,723.5C718,764.645 751.355,798 792.5,798C792.5,798 792.5,798 792.5,798C833.645,798 867,764.645 867,723.5L867,723.5Z"/>
    </g>
    <g transform="matrix(1,0,0,2.91862,257.5,-844.312)">
        <path d="M867,674.526C867,660.428 833.645,649 792.5,649L792.5,649C751.355,649 718,660.428 718,674.526C718,701.897 718,745.103 718,772.474C718,786.572 751.355,798 792.5,798L792.5,798C833.645,798 867,786.572 867,772.474C867,745.103 867,701.897 867,674.526Z"/>
    </g>
    <g transform="matrix(2.89262,0,0,1,-1665.4,686.75)">
        <path d="M867,723.5C867,682.355 855.469,649 841.245,649C813.939,649 771.061,649 743.755,649C736.925,649 730.374,656.849 725.544,670.821C720.713,684.792 718,703.741 718,723.5L718,723.5C718,764.645 729.531,798 743.755,798C771.061,798 813.939,798 841.245,798C855.469,798 867,764.645 867,723.5L867,723.5Z"/>
    </g>
    <g transform="matrix(2.89262,0,0,1,-819.399,402.375)">
        <path d="M867,723.5C867,682.355 855.469,649 841.245,649C813.939,649 771.061,649 743.755,649C736.925,649 730.374,656.849 725.544,670.821C720.713,684.792 718,703.741 718,723.5L718,723.5C718,764.645 729.531,798 743.755,798C771.061,798 813.939,798 841.245,798C855.469,798 867,764.645 867,723.5L867,723.5Z"/>
    </g>
</svg>
