<?xml version="1.0" encoding="UTF-8" standalone="no"?>
<svg width="100%" height="100%" viewBox="0 0 2100 2100" version="1.1" xmlns="http://www.w3.org/2000/svg" xmlnsXlink="http://www.w3.org/1999/xlink" xmlSpace="preserve" xmlnsSerif="http://www.serif.com/" style="fill-rule:evenodd;clip-rule:evenodd;stroke-linecap:round;stroke-linejoin:round;stroke-miterlimit:1.5;">
    <path d="M1763.5,579.5C1763.5,460.153 1716.09,345.693 1631.7,261.302C1547.31,176.911 1432.85,129.5 1313.5,129.5L786.5,129.5C667.153,129.5 552.693,176.911 468.302,261.302C383.911,345.693 336.5,460.153 336.5,579.5L336.5,1520.5C336.5,1639.85 383.911,1754.31 468.302,1838.7C552.693,1923.09 667.153,1970.5 786.5,1970.5L1313.5,1970.5C1432.85,1970.5 1547.31,1923.09 1631.7,1838.7C1716.09,1754.31 1763.5,1639.85 1763.5,1520.5L1763.5,579.5ZM1191.65,279.45L786.45,279.45C620.765,279.45 486.45,413.765 486.45,579.45L486.45,1520.55C486.45,1686.24 620.765,1820.55 786.45,1820.55L1313.55,1820.55C1479.24,1820.55 1613.55,1686.24 1613.55,1520.55L1613.55,692.71C1503.93,686.211 1400.1,639.785 1322.01,561.698C1246.13,485.822 1200.15,385.639 1191.65,279.45ZM1342.45,280.824C1350.87,348.772 1382.01,409.666 1428.03,455.682C1475.93,503.582 1539.95,535.359 1611.26,542.176C1594.07,403.509 1482.26,294.189 1342.45,280.824Z"/>
    <g transform="matrix(1,0,0,1,-122.608,122.494)">
        <path d="M1050.07,1050L1295.15,804.924" style="fill:none;stroke:black;stroke-width:150px;"/>
    </g>
    <g transform="matrix(2.83277e-16,1,-1,2.83277e-16,1977.53,-122.608)">
        <path d="M1050.07,1050L1295.15,804.924" style="fill:none;stroke:black;stroke-width:150px;"/>
    </g>
</svg>
