<?xml version="1.0" encoding="UTF-8" standalone="no"?>
<svg width="100%" height="100%" viewBox="0 0 2100 2100" version="1.1" xmlns="http://www.w3.org/2000/svg" xmlnsXlink="http://www.w3.org/1999/xlink" xmlSpace="preserve" xmlnsSerif="http://www.serif.com/" style="fill-rule:evenodd;clip-rule:evenodd;stroke-linejoin:round;stroke-miterlimit:2;">
    <g transform="matrix(1.56804,-8.09198e-17,1.14549e-16,1,-551.754,351.5)">
        <path d="M567,1200L1476,1200C1528.8,1200 1571.66,1132.79 1571.66,1050C1571.66,967.213 1528.8,900 1476,900L567,900C514.203,900 471.339,967.213 471.339,1050C471.339,1132.79 514.203,1200 567,1200Z"/>
    </g>
    <g transform="matrix(1.56804,-8.09198e-17,1.14549e-16,1,-551.754,-351.5)">
        <path d="M567,1200L1476,1200C1528.8,1200 1571.66,1132.79 1571.66,1050C1571.66,967.213 1528.8,900 1476,900L567,900C514.203,900 471.339,967.213 471.339,1050C471.339,1132.79 514.203,1200 567,1200Z"/>
    </g>
</svg>
