<?xml version="1.0" encoding="UTF-8" standalone="no"?>
<svg width="100%" height="100%" viewBox="0 0 2100 2100" version="1.1" xmlns="http://www.w3.org/2000/svg" xmlnsXlink="http://www.w3.org/1999/xlink" xmlSpace="preserve" xmlnsSerif="http://www.serif.com/" style="fill-rule:evenodd;clip-rule:evenodd;stroke-linejoin:round;stroke-miterlimit:2;">
    <path d="M775.157,160.437L774.469,160.437C756.348,160.471 738.041,164.081 720.605,171.527C391.141,311.685 160.124,638.352 160.124,1018.98C160.124,1527.01 572.586,1939.48 1080.62,1939.48L1082.86,1939.47C1463.27,1938.55 1789.42,1706.93 1928.85,1377.13C1952.89,1320.48 1936.73,1254.77 1889.15,1215.73C1863.88,1195 1832.96,1184.42 1801.89,1184.26L1801.2,1184.26C1774.01,1184.25 1746.75,1192.21 1723.11,1208.31C1721.29,1209.53 1719.47,1210.77 1717.64,1212.01C1615.7,1281.43 1498.79,1315.55 1382.44,1315.85L1380.84,1315.85C1225.73,1315.84 1071.8,1255.72 955.918,1139.03C752.727,934.416 724.278,614.023 888.239,376.811C888.24,376.81 888.24,376.809 888.241,376.808C923.174,326.27 920.471,258.72 881.612,211.134C854.896,178.419 815.519,160.562 775.157,160.437ZM666.549,369.048C675.823,363.1 687.91,363.99 696.212,371.232C704.514,378.474 707.038,390.328 702.404,400.323C571.22,680.581 625.319,1018.99 849.484,1244.72C1075.93,1472.75 1418.56,1528.04 1701.37,1393.75C1711.33,1389.06 1723.19,1391.52 1730.48,1399.77C1737.76,1408.03 1738.72,1420.1 1732.82,1429.4C1596.4,1645.76 1355.3,1789.48 1080.62,1789.48C655.373,1789.48 310.124,1444.23 310.124,1018.98C310.124,745.844 452.232,505.905 666.549,369.048Z"/>
</svg>
