<?xml version="1.0" encoding="UTF-8" standalone="no"?>
<svg width="100%" height="100%" viewBox="0 0 2100 2100" version="1.1" xmlns="http://www.w3.org/2000/svg" xmlnsXlink="http://www.w3.org/1999/xlink" xmlSpace="preserve" xmlnsSerif="http://www.serif.com/" style="fill-rule:evenodd;clip-rule:evenodd;stroke-linejoin:round;stroke-miterlimit:2;">
    <path d="M1970.5,579.5C1970.5,460.153 1923.09,345.693 1838.7,261.302C1754.31,176.911 1639.85,129.5 1520.5,129.5L579.5,129.5C460.153,129.5 345.693,176.911 261.302,261.302C176.911,345.693 129.5,460.153 129.5,579.5L129.5,1520.5C129.5,1639.85 176.911,1754.31 261.302,1838.7C345.693,1923.09 460.153,1970.5 579.5,1970.5L1520.5,1970.5C1639.85,1970.5 1754.31,1923.09 1838.7,1838.7C1923.09,1754.31 1970.5,1639.85 1970.5,1520.5L1970.5,579.5ZM1820.55,579.45C1820.55,413.765 1686.24,279.45 1520.55,279.45L579.45,279.45C413.765,279.45 279.45,413.765 279.45,579.45L279.45,1520.55C279.45,1686.24 413.765,1820.55 579.45,1820.55L1520.55,1820.55C1686.24,1820.55 1820.55,1686.24 1820.55,1520.55L1820.55,579.45Z"/>
    <g transform="matrix(1.19333,0,0,1.42222,-674.963,-123.333)">
        <path d="M1412.77,1052.71L1412.85,1050L1412.85,600C1412.85,570.895 1384.69,547.266 1350,547.266C1315.31,547.266 1287.15,570.895 1287.15,600L1287.15,772.266L1112.85,772.266L1112.85,600C1112.85,570.895 1084.69,547.266 1050,547.266C1015.31,547.266 987.151,570.895 987.151,600L987.151,1050C987.151,1050.91 987.178,1051.82 987.233,1052.71L987.475,1055.39L987.875,1058.03L988.428,1060.63L989.129,1063.18L989.976,1065.68L990.965,1068.13L992.09,1070.53L993.348,1072.86L994.736,1075.14L996.25,1077.35L997.884,1079.48L999.637,1081.55L1001.5,1083.54L1003.48,1085.46L1005.56,1087.29L1007.74,1089.04L1010.02,1090.69L1012.4,1092.26L1014.86,1093.73L1017.41,1095.1L1020.04,1096.37L1022.75,1097.53L1025.54,1098.59L1028.39,1099.53L1031.31,1100.36L1034.29,1101.07L1037.33,1101.66L1040.43,1102.13L1043.57,1102.46L1046.77,1102.67L1050,1102.73L1053.23,1102.67L1056.43,1102.46L1059.57,1102.13L1062.67,1101.66L1065.71,1101.07L1068.69,1100.36L1071.61,1099.53L1074.46,1098.59L1077.25,1097.53L1079.96,1096.37L1082.59,1095.1L1085.14,1093.73L1087.6,1092.26L1089.98,1090.69L1092.26,1089.04L1094.44,1087.29L1096.52,1085.46L1098.5,1083.54L1100.36,1081.55L1102.12,1079.48L1103.75,1077.35L1105.26,1075.14L1106.65,1072.86L1107.91,1070.53L1109.04,1068.13L1110.02,1065.68L1110.87,1063.18L1111.57,1060.63L1112.12,1058.03L1112.53,1055.39L1112.77,1052.71L1112.85,1050L1112.85,877.734C1112.85,877.734 1287.15,877.734 1287.15,877.734L1287.15,1050C1287.15,1050.91 1287.18,1051.82 1287.23,1052.71L1287.48,1055.39L1287.88,1058.03L1288.43,1060.63L1289.13,1063.18L1289.98,1065.68L1290.96,1068.13L1292.09,1070.53L1293.35,1072.86L1294.74,1075.14L1296.25,1077.35L1297.88,1079.48L1299.64,1081.55L1301.5,1083.54L1303.48,1085.46L1305.56,1087.29L1307.74,1089.04L1310.02,1090.69L1312.4,1092.26L1314.86,1093.73L1317.41,1095.1L1320.04,1096.37L1322.75,1097.53L1325.54,1098.59L1328.39,1099.53L1331.31,1100.36L1334.29,1101.07L1337.33,1101.66L1340.43,1102.13L1343.57,1102.46L1346.77,1102.67L1350,1102.73L1353.23,1102.67L1356.43,1102.46L1359.57,1102.13L1362.67,1101.66L1365.71,1101.07L1368.69,1100.36L1371.61,1099.53L1374.46,1098.59L1377.25,1097.53L1379.96,1096.37L1382.59,1095.1L1385.14,1093.73L1387.6,1092.26L1389.98,1090.69L1392.26,1089.04L1394.44,1087.29L1396.52,1085.46L1398.5,1083.54L1400.36,1081.55L1402.12,1079.48L1403.75,1077.35L1405.26,1075.14L1406.65,1072.86L1407.91,1070.53L1409.04,1068.13L1410.02,1065.68L1410.87,1063.18L1411.57,1060.63L1412.12,1058.03L1412.53,1055.39L1412.77,1052.71Z"/>
    </g>
    <g transform="matrix(0.838236,0,0,0.714548,250.359,391.034)">
        <path d="M1183.72,1154.96L1517,1154.96C1542.18,1154.96 1566.19,1142.52 1583.15,1120.68C1600.1,1098.84 1608.43,1069.63 1606.09,1040.22C1606.09,1040.22 1599.33,951.429 1561.1,863.589C1517.81,764.104 1438.04,667.842 1296.92,671.667C1099.52,677.017 1000.21,856.541 1000.53,1050.2C1000.7,1156.68 1009.42,1282.53 1071.08,1366.99C1116.37,1429 1189.07,1476.91 1313.2,1474.95C1432.36,1473.08 1530.65,1388.52 1530.65,1388.52C1570.43,1354.19 1578.97,1288.44 1549.7,1241.78C1520.44,1195.11 1464.39,1185.1 1424.61,1219.43C1424.61,1219.43 1373.22,1264.07 1310.8,1265.05C1259.08,1265.86 1225.86,1256.26 1206.99,1230.42C1193.49,1211.93 1188.28,1187.88 1184.78,1163.42L1183.72,1154.96ZM1395.06,945.039C1377.5,911.311 1349.12,880.231 1301.05,881.534C1254.48,882.796 1222.34,908.403 1202.88,945.039L1395.06,945.039Z"/>
    </g>
    <path d="M1320,591C1278.61,591 1245,557.394 1245,516C1245,474.606 1278.61,441 1320,441L1548,441C1589.39,441 1623,474.606 1623,516C1623,557.394 1589.39,591 1548,591C1548,591 1320,591 1320,591Z"/>
    <path d="M1548,441L1548,591L1548,471.496L1548,591L1320,591C1278.61,591 1245,557.394 1245,516C1245,474.606 1278.61,441 1320,441L1548,441ZM1548,441C1589.39,441 1623,474.606 1623,516C1623,557.394 1589.39,591 1548,591L1548,441Z"/>
</svg>
