<?xml version="1.0" encoding="UTF-8" standalone="no"?>
<svg width="100%" height="100%" viewBox="0 0 2100 2100" version="1.1" xmlns="http://www.w3.org/2000/svg" xmlnsXlink="http://www.w3.org/1999/xlink" xmlSpace="preserve" xmlnsSerif="http://www.serif.com/" style="fill-rule:evenodd;clip-rule:evenodd;stroke-linejoin:round;stroke-miterlimit:2;">
    <g transform="matrix(1.02512,0,0,1,-6.30393,0)">
        <path d="M898.308,521.791C821.949,521.791 748.614,552.386 693.955,607.045C584.119,716.881 396.438,904.562 304.687,996.313C290.572,1010.43 282.612,1029.79 282.612,1050C282.612,1070.21 290.572,1089.57 304.687,1103.69C396.438,1195.44 584.119,1383.12 693.955,1492.95C748.614,1547.61 821.949,1578.21 898.308,1578.21L1431.56,1578.21C1593.18,1578.21 1724.21,1443.89 1724.21,1278.21L1724.21,821.791C1724.21,656.106 1593.18,521.791 1431.56,521.791L898.308,521.791Z" style="fill-opacity:0;"/>
    </g>
    <g transform="matrix(1.02512,0,0,1,-6.30393,0)">
        <path d="M898.308,371.791C783.77,371.791 673.768,417.683 591.779,499.672C481.943,609.508 294.262,797.189 202.51,888.94C160.165,931.285 136.287,989.359 136.287,1050C136.287,1110.64 160.165,1168.71 202.51,1211.06C294.262,1302.81 481.943,1490.49 591.779,1600.33C673.768,1682.32 783.77,1728.21 898.308,1728.21L1431.56,1728.21C1674,1728.21 1870.53,1526.74 1870.53,1278.21L1870.53,821.791C1870.53,573.263 1674,371.791 1431.56,371.791L898.308,371.791ZM460.55,1050L796.131,714.418C823.461,687.088 860.128,671.791 898.308,671.791L1431.56,671.791C1512.37,671.791 1577.88,738.949 1577.88,821.791L1577.88,1278.21C1577.88,1361.05 1512.37,1428.21 1431.56,1428.21C1431.56,1428.21 898.392,1428.21 898.308,1428.21C860.128,1428.21 823.461,1412.91 796.132,1385.58L460.55,1050Z"/>
    </g>
</svg>
