<?xml version="1.0" encoding="UTF-8" standalone="no"?>
<svg width="100%" height="100%" viewBox="0 0 2100 2100" version="1.1" xmlns="http://www.w3.org/2000/svg" xmlnsXlink="http://www.w3.org/1999/xlink" xmlSpace="preserve" xmlnsSerif="http://www.serif.com/" style="fill-rule:evenodd;clip-rule:evenodd;stroke-linejoin:round;stroke-miterlimit:2;">
    <g transform="matrix(0.911058,0,0,0.914644,115.255,124.837)">
        <path d="M194,1214L417.171,1214C417.171,1214 675.91,1687.41 675.91,1687.41C709.935,1749.66 780.262,1783.1 850.252,1770.3C920.242,1757.5 974.054,1701.35 983.654,1631.12L1125.26,594.987C1125.26,594.987 1858.01,594.945 1858.01,594.945C1948.88,594.939 2022.65,521.45 2022.64,430.937C2022.64,340.424 1948.86,266.943 1857.99,266.948L981.505,267C899.161,267.004 829.483,327.604 818.376,408.876C818.376,408.876 769.116,769.293 725.092,1091.41C725.092,1091.41 659.604,971.587 659.604,971.587C630.773,918.835 575.299,886.002 515,886.002L194,886.002C103.131,886.002 29.356,959.487 29.356,1050C29.356,1140.51 103.131,1214 194,1214Z"/>
    </g>
</svg>
