<?xml version="1.0" encoding="UTF-8" standalone="no"?>
<svg width="100%" height="100%" viewBox="0 0 2100 2100" version="1.1" xmlns="http://www.w3.org/2000/svg" xmlnsXlink="http://www.w3.org/1999/xlink" xmlSpace="preserve" xmlnsSerif="http://www.serif.com/" style="fill-rule:evenodd;clip-rule:evenodd;stroke-linejoin:round;stroke-miterlimit:2;">
    <path d="M696.858,920.778C576.296,1040.21 527.751,1227.92 534.093,1408.37C541.91,1630.82 623.954,1761.96 720.923,1840.95C821.673,1923.01 945.603,1950.13 1050.19,1950C1175.17,1949.84 1336.46,1905.49 1447.64,1776.94C1519.2,1694.2 1573.02,1575.49 1574.99,1404.73C1577.68,1171.4 1510.03,1025.78 1423.52,934.905C1498.8,848.282 1537.28,738.167 1540.9,638.441C1545.45,513.174 1498.47,361 1380.33,260.072C1303.16,194.156 1195.25,147.296 1047.23,150.026L1047.23,150.026C864.472,153.396 588.058,303.055 589.001,633.428C589.301,738.877 630.476,840.322 696.858,920.778ZM1076.37,1090.99C1071.37,1091.05 1066.36,1091.1 1061.36,1091.16L1045.46,1091.2C1041.65,1091.21 1037.83,1091.22 1034.01,1091.22L1028.13,1091.07C859.799,1097.51 829.108,1261.27 833.907,1397.83C837.001,1485.86 855.974,1547.63 889.996,1588.21C933.711,1640.34 998.626,1650.07 1049.81,1650C1102.99,1649.93 1173.43,1635.39 1220.73,1580.69C1254.83,1541.27 1274.07,1482.64 1275.01,1401.27C1276.56,1266.89 1250.3,1181.97 1198.94,1134.51C1164.97,1103.12 1122.38,1092.42 1082.71,1090.76L1076.37,1090.99ZM1075.82,790.591C1183.07,783.171 1238.47,699.864 1241.1,627.559C1242.76,581.821 1228.6,525.024 1185.47,488.173C1155.09,462.226 1111.03,448.9 1052.77,449.974L1052.77,449.974C985.465,451.216 888.652,510.914 888.999,632.572C889.221,710.332 951.653,785.209 1027.89,790.936L1030.89,790.854L1048.8,791.007L1065.38,790.563L1075.82,790.591Z"/>
</svg>
