<?xml version="1.0" encoding="UTF-8" standalone="no"?>
<svg width="100%" height="100%" viewBox="0 0 2100 2100" version="1.1" xmlns="http://www.w3.org/2000/svg" xmlnsXlink="http://www.w3.org/1999/xlink" xmlSpace="preserve" xmlnsSerif="http://www.serif.com/" style="fill-rule:evenodd;clip-rule:evenodd;stroke-linejoin:round;stroke-miterlimit:2;">
    <rect x="0" y="0" width="2100" height="2100" style="fill-opacity:0;"/>
    <g transform="matrix(1,0,0,1,36.1042,-0.360369)">
        <path d="M1444.95,150L582.833,150C499.998,150 432.844,217.146 432.833,299.981L432.746,1002.98C432.741,1042.93 448.674,1081.24 477.014,1109.4C505.353,1137.56 543.757,1153.25 583.709,1153L1050.96,1150C1054.49,1149.97 1058.02,1149.83 1061.54,1149.56C1061.54,1149.56 1174.5,1139.01 1242.71,1220.52C1275.26,1259.4 1294.15,1318.12 1295.01,1402.53C1296.1,1509.49 1277.89,1574.77 1238.11,1610.68C1177.3,1665.58 1089.48,1649.38 1047.73,1650.02C941.376,1651.63 583.421,1650 583.421,1650C500.634,1649.63 433.12,1716.54 432.747,1799.33C432.374,1882.11 499.284,1949.63 582.07,1950C582.07,1950 944.57,1951.62 1052.27,1949.98C1139.06,1948.67 1312.75,1947.46 1439.14,1833.36C1524.13,1756.63 1597.32,1627.99 1594.99,1399.48C1593.22,1225.16 1539.98,1108.28 1472.78,1027.98C1308.29,831.439 1038.46,850.445 1038.46,850.445L1049.04,850.003L732.764,852.034C732.764,852.034 732.815,450 732.815,450C732.815,450 1444.95,450 1444.95,450C1527.73,450 1594.95,382.787 1594.95,300C1594.95,217.213 1527.73,150 1444.95,150Z"/>
    </g>
</svg>
