<?xml version="1.0" encoding="UTF-8" standalone="no"?>
<svg width="100%" height="100%" viewBox="0 0 2100 2100" version="1.1" xmlns="http://www.w3.org/2000/svg" xmlnsXlink="http://www.w3.org/1999/xlink" xmlSpace="preserve" xmlnsSerif="http://www.serif.com/" style="fill-rule:evenodd;clip-rule:evenodd;stroke-linejoin:round;stroke-miterlimit:2;">
    <rect x="0" y="0" width="2100" height="2100" style="fill-opacity:0;"/>
    <g transform="matrix(1,0,0,1,305.789,9.35675e-08)">
        <path d="M900.195,292.281L900,300L900,778.342C813.751,776.924 705.244,776.251 611.496,779.068C580.852,779.988 588.813,742.493 588.813,742.493C588.941,739.931 589.003,737.366 589,734.801L588.422,299.801C588.312,217.013 521.01,149.89 438.223,150C355.435,150.11 288.312,217.412 288.422,300.199L289,735.199L289.187,727.507C289.187,727.507 276.615,1089.26 620.504,1078.93C711.46,1076.2 816.948,1076.92 900,1078.35L900,1800C900,1882.79 967.213,1950 1050,1950C1132.79,1950 1200,1882.79 1200,1800L1200,300C1200,297.407 1199.93,294.829 1199.81,292.281L1199.23,284.663L1198.27,277.156L1196.95,269.77L1195.28,262.513L1193.26,255.395L1190.9,248.425L1188.21,241.613L1185.21,234.969L1181.9,228.501L1178.28,222.22L1174.38,216.134L1170.2,210.253L1165.75,204.586L1161.03,199.143L1156.07,193.934L1150.86,188.967L1145.41,184.253L1139.75,179.8L1133.87,175.618L1127.78,171.716L1121.5,168.104L1115.03,164.792L1108.39,161.788L1101.58,159.102L1094.61,156.744L1087.49,154.722L1080.23,153.047L1072.84,151.728L1065.34,150.774L1057.72,150.195L1050,150L1042.28,150.195L1034.66,150.774L1027.16,151.728L1019.77,153.047L1012.51,154.722L1005.39,156.744L998.425,159.102L991.613,161.788L984.969,164.792L978.501,168.104L972.22,171.716L966.134,175.618L960.253,179.8L954.586,184.253L949.143,188.967L943.934,193.934L938.967,199.143L934.253,204.586L929.8,210.253L925.618,216.134L921.716,222.22L918.104,228.501L914.792,234.969L911.788,241.613L909.102,248.425L906.744,255.395L904.722,262.513L903.047,269.77L901.728,277.156L900.774,284.663L900.195,292.281Z"/>
    </g>
</svg>
