<?xml version="1.0" encoding="UTF-8" standalone="no"?>
<svg width="100%" height="100%" viewBox="0 0 2100 2100" version="1.1" xmlns="http://www.w3.org/2000/svg" xmlnsXlink="http://www.w3.org/1999/xlink" xmlSpace="preserve" xmlnsSerif="http://www.serif.com/" style="fill-rule:evenodd;clip-rule:evenodd;stroke-linejoin:round;stroke-miterlimit:2;">
    <g transform="matrix(1,0,0,1,62.5453,0.00669538)">
        <path d="M1014.63,1169.26C866.459,1439.99 671.332,1714.12 671.332,1714.12C623.93,1781.99 640.551,1875.58 708.425,1922.98C776.299,1970.38 869.888,1953.76 917.289,1885.88C917.289,1885.88 1420.3,1153.24 1471.19,828.204L1471.31,827.434L1471.41,826.857L1471.48,826.273C1505.96,604.015 1476.9,415.93 1378.5,298.845C1303.74,209.889 1189.08,150.097 1015.53,150C849.839,149.908 726.106,199.234 639.561,281.074C552.141,363.742 498.75,483.265 490.222,639.842C481.314,803.385 557.092,957.247 663.604,1054.6C743.357,1127.5 839.7,1168.15 929.973,1169.97C959.182,1170.56 987.421,1170.38 1014.63,1169.26ZM1175.91,774.131C1187.7,696.343 1191.25,625.017 1179.34,564.823C1172.11,528.284 1160.11,496.559 1132.83,477.063C1104.74,456.99 1065.56,450.028 1015.36,450C941.862,449.959 884.077,462.744 845.685,499.049C808.171,534.523 793.438,588.967 789.778,656.158C785.959,726.269 820.34,791.426 866.001,833.161C887.744,853.035 911.416,869.534 936.027,870.031C1049.82,872.328 1144.69,883.942 1175.91,774.131Z"/>
    </g>
</svg>
