<?xml version="1.0" encoding="UTF-8" standalone="no"?>
<svg width="100%" height="100%" viewBox="0 0 2100 2100" version="1.1" xmlns="http://www.w3.org/2000/svg" xmlnsXlink="http://www.w3.org/1999/xlink" xmlSpace="preserve" xmlnsSerif="http://www.serif.com/" style="fill-rule:evenodd;clip-rule:evenodd;stroke-linejoin:round;stroke-miterlimit:2;">
    <rect x="0" y="0" width="2100" height="2100" style="fill-opacity:0;"/>
    <path d="M1137.58,172.465C1137.54,172.491 923.43,304.777 745.927,508.667C616.755,657.041 510.133,842.369 497.314,1040.31C485.003,1230.38 481.578,1405.82 513.328,1545.27C540.468,1664.47 592.477,1761.17 673.984,1831.12C758.771,1903.88 878.444,1950.97 1050.84,1950C1231.28,1948.98 1344.6,1890.01 1418.74,1812.33C1493.36,1734.16 1530.02,1631.21 1542.69,1523.9C1555.25,1417.67 1542.86,1308.06 1543,1237.3C1543.48,994.827 1297.46,715.385 908.805,823.486L876.878,832.718C904.909,787.434 938.006,744.923 972.194,705.652C1118.87,537.175 1295.5,427.535 1295.5,427.535C1365.89,383.956 1387.65,291.428 1344.08,221.04C1300.5,150.651 1207.97,128.885 1137.58,172.465ZM790.193,1361.91C792.419,1397.98 796.454,1432.26 802.814,1464.42C814.105,1521.49 831.259,1570.76 869.361,1603.46C909.21,1637.66 968.131,1650.46 1049.16,1650C1122.2,1649.59 1171.72,1636.63 1201.74,1605.19C1231.25,1574.27 1239.75,1531.15 1244.77,1488.7C1255.8,1395.3 1242.88,1298.92 1243,1236.7C1243.18,1146.23 1134.22,1072.18 989.195,1112.51C898.678,1137.69 841.562,1152.37 811.941,1189.34C786.338,1221.29 792.046,1266.03 792.984,1330.83C793.138,1341.46 792.179,1351.86 790.193,1361.91ZM1137.58,172.465L1137.58,172.465L1137.58,172.465Z"/>
</svg>
