<?xml version="1.0" encoding="UTF-8" standalone="no"?>
<svg width="100%" height="100%" viewBox="0 0 2100 2100" version="1.1" xmlns="http://www.w3.org/2000/svg" xmlnsXlink="http://www.w3.org/1999/xlink" xmlSpace="preserve" xmlnsSerif="http://www.serif.com/" style="fill-rule:evenodd;clip-rule:evenodd;stroke-linejoin:round;stroke-miterlimit:2;">
    <rect x="0" y="0" width="2100" height="2100" style="fill-opacity:0;"/>
    <path d="M841.54,681.266C841.54,681.266 828.376,563.397 903.197,493.915C934.126,465.193 981.476,449.647 1049.22,449.998C1108.14,450.303 1152.08,461.776 1183.3,484.793C1259.26,540.795 1257.84,645.99 1256.07,703.379C1251.66,846.601 1136.69,1019.86 1011.17,1181.64C799.025,1455.07 537.19,1687.91 537.19,1687.91C490.659,1729.3 474.535,1795.12 496.672,1853.33C518.81,1911.53 574.604,1950 636.874,1950L1433.8,1950C1516.59,1950 1583.8,1882.79 1583.8,1800C1583.8,1717.21 1516.59,1650 1433.8,1650L1002.62,1650C1119.7,1525.7 1254.16,1369.97 1359.14,1211.82C1473.85,1039.01 1551.35,861.161 1555.93,712.621C1559.83,586.064 1528.84,366.82 1361.32,243.322C1288.24,189.441 1188.69,150.716 1050.78,150.002C885.073,149.145 774.701,203.834 699.052,274.086C525.222,435.513 542.46,704.734 542.46,704.734C548.936,787.268 621.201,849.017 703.734,842.54C786.268,836.064 848.017,763.799 841.54,681.266L841.54,681.266Z"/>
</svg>
