<?xml version="1.0" encoding="UTF-8" standalone="no"?>
<svg width="100%" height="100%" viewBox="0 0 2100 2100" version="1.1" xmlns="http://www.w3.org/2000/svg" xmlnsXlink="http://www.w3.org/1999/xlink" xmlSpace="preserve" xmlnsSerif="http://www.serif.com/" style="fill-rule:evenodd;clip-rule:evenodd;stroke-linejoin:round;stroke-miterlimit:2;">
    <g transform="matrix(1,0,0,1,4.23805,-0.0932946)">
        <path d="M1048.72,150.005C971.361,150.666 888.096,162.096 808.765,208.505C736.199,250.957 663.755,322.938 608.294,455.162C545.221,605.537 500.219,852.832 505.01,1260.76C508.069,1521.18 577.754,1687.16 668.458,1789.64C774.293,1909.23 913.495,1954.22 1054.56,1949.93C1293.42,1942.67 1574.28,1775.85 1584.97,1267.15C1591.93,935.702 1578.67,623.701 1484.92,427.235C1401.52,252.442 1265.27,148.158 1048.72,150.005ZM1051.28,449.995C1161.77,449.052 1211.77,526.312 1242.02,631.872C1289.65,798.046 1290.01,1023.99 1285.03,1260.85C1279.38,1529.76 1171.71,1646.23 1045.44,1650.07C910.532,1654.17 808.403,1547.85 804.99,1257.24C801.091,925.335 829.048,717.106 878.593,587.09C902.462,524.453 927.902,486.374 960.25,467.449C990.022,450.033 1022.25,450.242 1051.28,449.995Z"/>
    </g>
</svg>
